<svg width="40" height="39" viewBox="0 0 40 39" fill="none" xmlns="http://www.w3.org/2000/svg">
<path d="M20 0C8.955 0 0 8.86784 0 19.8053C0 29.0858 6.45333 36.8511 15.1533 39C15.06 38.7326 15 38.4223 15 38.0378V34.6527C14.1883 34.6527 12.8283 34.6527 12.4867 34.6527C11.1183 34.6527 9.90167 34.0701 9.31167 32.9874C8.65667 31.7843 8.54333 29.944 6.92 28.8184C6.43833 28.4438 6.805 28.0163 7.36 28.0741C8.385 28.3612 9.235 29.0577 10.035 30.0909C10.8317 31.1257 11.2067 31.3601 12.695 31.3601C13.4167 31.3601 14.4967 31.3188 15.5133 31.1604C16.06 29.7856 17.005 28.5197 18.16 27.9222C11.5 27.2439 8.32167 23.9628 8.32167 19.5083C8.32167 17.5904 9.14667 15.7353 10.5483 14.1724C10.0883 12.6209 9.51 9.45705 10.725 8.25222C13.7217 8.25222 15.5333 10.1766 15.9683 10.6965C17.4617 10.1898 19.1017 9.90267 20.825 9.90267C22.5517 9.90267 24.1983 10.1898 25.695 10.6998C26.125 10.1832 27.9383 8.25222 30.9417 8.25222C32.1617 9.4587 31.5767 12.6358 31.1117 14.1839C32.505 15.7436 33.325 17.5937 33.325 19.5083C33.325 23.9595 30.1517 27.2389 23.5017 27.9206C25.3317 28.8663 26.6667 31.5235 26.6667 33.5255V38.0378C26.6667 38.2094 26.6283 38.3332 26.6083 38.4801C34.4017 35.775 40 28.4471 40 19.8053C40 8.86784 31.045 0 20 0Z" fill="white"/>
</svg>
