<?xml version="1.0" encoding="utf-8"?>
<!-- Generator: Adobe Illustrator 26.0.1, SVG Export Plug-In . SVG Version: 6.00 Build 0)  -->
<svg version="1.1" id="Ebene_1" xmlns="http://www.w3.org/2000/svg" xmlns:xlink="http://www.w3.org/1999/xlink" x="0px" y="0px"
	 viewBox="0 0 100 100" style="enable-background:new 0 0 100 100;" xml:space="preserve">
<style type="text/css">
	.st0{fill:none;stroke:#1D1D1B;stroke-linecap:round;stroke-linejoin:round;stroke-miterlimit:10;}
	.st1{fill:none;stroke:#000000;stroke-miterlimit:10;}
</style>
<g id="Layer_1">
</g>
<image style="overflow:visible;" width="216" height="216" xlink:href="893109DC.jpg"  transform="matrix(0.4291 0 0 0.4291 104.7872 7.5596)">
</image>
<g>
	<rect x="57.8" y="53.9" class="st0" width="18.5" height="26.3"/>
	<line class="st0" x1="62" y1="60.2" x2="72.2" y2="60.2"/>
	<g>
		<line class="st0" x1="66.2" y1="77.5" x2="66.2" y2="77.5"/>
		<line class="st0" x1="61.4" y1="77.5" x2="63.6" y2="77.5"/>
		<line class="st0" x1="68.8" y1="77.5" x2="72.8" y2="77.5"/>
	</g>
	<line class="st0" x1="62" y1="64.1" x2="72.2" y2="64.1"/>
	<line class="st0" x1="62" y1="68" x2="69.3" y2="68"/>
</g>
<g>
	<rect x="16.4" y="35.2" class="st0" width="30" height="13.7"/>
	<line class="st0" x1="20.6" y1="40.2" x2="30.8" y2="40.2"/>
	<line class="st0" x1="20.6" y1="44.2" x2="40.5" y2="44.2"/>
</g>
<rect x="27.1" y="54.9" class="st0" width="25.6" height="17.3"/>
<line class="st0" x1="27.1" y1="76.2" x2="47" y2="76.2"/>
<line class="st0" x1="27.1" y1="80.2" x2="37" y2="80.2"/>
<polygon class="st0" points="73,31.5 73,43.1 61.5,43.1 61.5,47.3 80.2,47.3 80.2,31.5 "/>
<line class="st0" x1="23.3" y1="90.1" x2="67.2" y2="90.1"/>
<line class="st0" x1="47.3" y1="92.8" x2="81.1" y2="92.8"/>
<line class="st0" x1="16.5" y1="92.8" x2="33.4" y2="92.8"/>
<line class="st0" x1="84.1" y1="92.8" x2="88.9" y2="92.8"/>
<rect x="54.3" y="27.3" class="st1" width="18.7" height="15.8"/>
</svg>
