<?xml version="1.0" encoding="utf-8"?>
<!-- Generator: Adobe Illustrator 26.0.1, SVG Export Plug-In . SVG Version: 6.00 Build 0)  -->
<svg version="1.1" id="Ebene_1" xmlns="http://www.w3.org/2000/svg" xmlns:xlink="http://www.w3.org/1999/xlink" x="0px" y="0px"
	 viewBox="0 0 100 100" style="enable-background:new 0 0 100 100;" xml:space="preserve">
<style type="text/css">
	.st0{fill:none;stroke:#1D1D1B;stroke-linecap:round;stroke-linejoin:round;stroke-miterlimit:10;}
</style>
<rect x="12.9" y="33.4" class="st0" width="74.2" height="55.1"/>
<polygon class="st0" points="60.7,95.8 39.2,95.8 41,88.6 58.8,88.6 "/>
<line class="st0" x1="34" y1="95.8" x2="66" y2="95.8"/>
<g>
	<line class="st0" x1="29" y1="54.7" x2="35.5" y2="54.7"/>
	<line class="st0" x1="38.2" y1="54.7" x2="42.9" y2="54.7"/>
</g>
<g>
	<line class="st0" x1="33" y1="61.3" x2="55.2" y2="61.3"/>
	<line class="st0" x1="58.2" y1="61.3" x2="64.4" y2="61.3"/>
	<line class="st0" x1="67.4" y1="61.3" x2="72.8" y2="61.3"/>
</g>
<g>
	<line class="st0" x1="29" y1="67.8" x2="42.8" y2="67.8"/>
	<line class="st0" x1="45.7" y1="67.8" x2="51" y2="67.8"/>
</g>
<g>
	<polyline class="st0" points="32,47.7 29,44.7 32,41.7 	"/>
	<polyline class="st0" points="39.3,41.7 42.3,44.7 39.3,47.7 	"/>
	<line class="st0" x1="36.5" y1="41.7" x2="34.9" y2="47.7"/>
</g>
<line class="st0" x1="21.3" y1="41.7" x2="21.3" y2="67.8"/>
<g>
	<line class="st0" x1="73.1" y1="44.7" x2="77.8" y2="44.7"/>
	<line class="st0" x1="65.2" y1="44.7" x2="69.9" y2="44.7"/>
</g>
</svg>
